STARTFONT 2.3
FONT -FontForge-Syncopate-Book-R-Normal--8-80-72-72-P-59-ISO10646-1
SIZE 8 72 72  4
FONTBOUNDINGBOX 15 10 -2 -2
COMMENT "Generated by fontforge, http://fontforge.sourceforge.net"
COMMENT "Copyright (c) 2010 by Brian J. Bonislawsky DBA Astigmatic (AOETI). All rights reserved. Available under the Apache 2.0 licence.http://www.apache.org/licenses/LICENSE-2.0.html"
STARTPROPERTIES 40
FOUNDRY "FontForge"
FAMILY_NAME "Syncopate"
WEIGHT_NAME "Book"
SLANT "R"
SETWIDTH_NAME "Normal"
ADD_STYLE_NAME ""
PIXEL_SIZE 8
POINT_SIZE 80
RESOLUTION_X 72
RESOLUTION_Y 72
SPACING "P"
AVERAGE_WIDTH 59
CHARSET_REGISTRY "ISO10646"
CHARSET_ENCODING "1"
FONTNAME_REGISTRY ""
CHARSET_COLLECTIONS "ISO8859-2 ISO8859-9 ISO8859-4 ISO10646-1"
BITS_PER_PIXEL 4
FONT_NAME "Syncopate-Regular"
FACE_NAME "Syncopate Regular"
COPYRIGHT "Copyright (c) 2010 by Brian J. Bonislawsky DBA Astigmatic (AOETI). All rights reserved. Available under the Apache 2.0 licence.http://www.apache.org/licenses/LICENSE-2.0.html"
FONT_VERSION "001.001"
FONT_ASCENT 6
FONT_DESCENT 2
UNDERLINE_POSITION -1
UNDERLINE_THICKNESS 1
X_HEIGHT 5
CAP_HEIGHT 5
RAW_ASCENT 799
RAW_DESCENT 200
NORM_SPACE 3
RELATIVE_WEIGHT 40
RELATIVE_SETWIDTH 70
SUPERSCRIPT_X 0
SUPERSCRIPT_Y 2
SUPERSCRIPT_SIZE 1
SUBSCRIPT_X 0
SUBSCRIPT_Y 2
SUBSCRIPT_SIZE 1
AVG_LOWERCASE_WIDTH 67
AVG_UPPERCASE_WIDTH 65
ENDPROPERTIES
CHARS 370
STARTCHAR space
ENCODING 32
SWIDTH 375 0
DWIDTH 3 0
BBX 1 1 0 0
BITMAP
00
ENDCHAR
STARTCHAR exclam
ENCODING 33
SWIDTH 274 0
DWIDTH 2 0
BBX 2 6 0 0
BITMAP
12
36
25
25
12
25
ENDCHAR
STARTCHAR quotedbl
ENCODING 34
SWIDTH 290 0
DWIDTH 2 0
BBX 2 3 0 3
BITMAP
33
77
11
ENDCHAR
STARTCHAR numbersign
ENCODING 35
SWIDTH 701 0
DWIDTH 6 0
BBX 6 6 0 0
BITMAP
002020
006060
187871
060600
395940
060600
ENDCHAR
STARTCHAR dollar
ENCODING 36
SWIDTH 767 0
DWIDTH 6 0
BBX 6 7 0 -1
BITMAP
026730
363440
284400
016960
002426
378872
001100
ENDCHAR
STARTCHAR percent
ENCODING 37
SWIDTH 992 0
DWIDTH 8 0
BBX 8 7 0 -1
BITMAP
05500200
61352600
53547000
03273650
00537052
03506581
00000100
ENDCHAR
STARTCHAR ampersand
ENCODING 38
SWIDTH 926 0
DWIDTH 7 0
BBX 7 7 0 -1
BITMAP
00562000
07208000
04663000
07750040
53037530
18657840
00110000
ENDCHAR
STARTCHAR quotesingle
ENCODING 39
SWIDTH 140 0
DWIDTH 1 0
BBX 1 3 0 3
BITMAP
30
70
10
ENDCHAR
STARTCHAR parenleft
ENCODING 40
SWIDTH 420 0
DWIDTH 3 0
BBX 3 7 0 -1
BITMAP
0340
0800
4400
5300
2500
0810
0130
ENDCHAR
STARTCHAR parenright
ENCODING 41
SWIDTH 420 0
DWIDTH 3 0
BBX 3 7 0 -1
BITMAP
1700
0540
0080
0080
0170
0720
1300
ENDCHAR
STARTCHAR asterisk
ENCODING 42
SWIDTH 503 0
DWIDTH 4 0
BBX 4 4 0 2
BITMAP
0110
3773
2892
1221
ENDCHAR
STARTCHAR plus
ENCODING 43
SWIDTH 634 0
DWIDTH 5 0
BBX 5 5 0 0
BITMAP
004000
006000
26A630
006000
001000
ENDCHAR
STARTCHAR comma
ENCODING 44
SWIDTH 185 0
DWIDTH 1 0
BBX 2 2 0 -1
BITMAP
71
60
ENDCHAR
STARTCHAR hyphen
ENCODING 45
SWIDTH 540 0
DWIDTH 4 0
BBX 4 1 0 2
BITMAP
3775
ENDCHAR
STARTCHAR period
ENCODING 46
SWIDTH 185 0
DWIDTH 1 0
BBX 2 1 0 0
BITMAP
81
ENDCHAR
STARTCHAR slash
ENCODING 47
SWIDTH 500 0
DWIDTH 4 0
BBX 4 7 0 -1
BITMAP
0014
0061
0070
0520
0700
4300
1000
ENDCHAR
STARTCHAR zero
ENCODING 48
SWIDTH 833 0
DWIDTH 7 0
BBX 7 7 0 -1
BITMAP
00563000
08204600
62000710
71000520
45000800
06757300
00010000
ENDCHAR
STARTCHAR one
ENCODING 49
SWIDTH 339 0
DWIDTH 3 0
BBX 2 6 0 0
BITMAP
24
58
07
07
07
07
ENDCHAR
STARTCHAR two
ENCODING 50
SWIDTH 728 0
DWIDTH 6 0
BBX 6 6 0 0
BITMAP
156510
420181
000062
000360
017400
5C7772
ENDCHAR
STARTCHAR three
ENCODING 51
SWIDTH 726 0
DWIDTH 6 0
BBX 6 7 0 -1
BITMAP
266610
310190
002370
016660
000053
675670
011000
ENDCHAR
STARTCHAR four
ENCODING 52
SWIDTH 769 0
DWIDTH 6 0
BBX 6 6 0 0
BITMAP
000330
003670
037070
370070
7777B6
000070
ENDCHAR
STARTCHAR five
ENCODING 53
SWIDTH 738 0
DWIDTH 6 0
BBX 6 7 0 -1
BITMAP
266660
441110
454300
243482
000026
465681
001000
ENDCHAR
STARTCHAR six
ENCODING 54
SWIDTH 772 0
DWIDTH 6 0
BBX 6 7 0 -1
BITMAP
004661
072011
534640
772037
440007
066574
000100
ENDCHAR
STARTCHAR seven
ENCODING 55
SWIDTH 669 0
DWIDTH 5 0
BBX 6 6 0 0
BITMAP
666661
111190
000620
002700
008000
053000
ENDCHAR
STARTCHAR eight
ENCODING 56
SWIDTH 793 0
DWIDTH 6 0
BBX 6 7 0 -1
BITMAP
026640
180036
084373
176574
710008
286565
001100
ENDCHAR
STARTCHAR nine
ENCODING 57
SWIDTH 776 0
DWIDTH 6 0
BBX 6 7 0 -1
BITMAP
036510
550172
700008
276678
000026
175660
001000
ENDCHAR
STARTCHAR colon
ENCODING 58
SWIDTH 245 0
DWIDTH 2 0
BBX 2 4 0 0
BITMAP
44
11
00
54
ENDCHAR
STARTCHAR semicolon
ENCODING 59
SWIDTH 234 0
DWIDTH 2 0
BBX 2 5 0 -1
BITMAP
44
11
00
52
60
ENDCHAR
STARTCHAR less
ENCODING 60
SWIDTH 634 0
DWIDTH 5 0
BBX 5 5 0 0
BITMAP
000230
047400
391000
005720
000010
ENDCHAR
STARTCHAR equal
ENCODING 61
SWIDTH 634 0
DWIDTH 5 0
BBX 5 3 0 1
BITMAP
277730
122210
144420
ENDCHAR
STARTCHAR greater
ENCODING 62
SWIDTH 634 0
DWIDTH 5 0
BBX 5 5 0 0
BITMAP
230000
047400
001840
165000
100000
ENDCHAR
STARTCHAR question
ENCODING 63
SWIDTH 568 0
DWIDTH 5 0
BBX 4 6 0 0
BITMAP
2661
2119
0008
0671
0400
0700
ENDCHAR
STARTCHAR at
ENCODING 64
SWIDTH 1016 0
DWIDTH 8 0
BBX 8 7 0 -1
BITMAP
00267500
06511281
36375816
53701626
27366760
04766710
00011000
ENDCHAR
STARTCHAR A
ENCODING 65
SWIDTH 812 0
DWIDTH 7 0
BBX 7 6 0 0
BITMAP
00140000
00781000
01717000
07107100
1A777700
71000620
ENDCHAR
STARTCHAR B
ENCODING 66
SWIDTH 836 0
DWIDTH 7 0
BBX 7 6 0 0
BITMAP
16665100
16112800
16112700
19666700
16000530
1A777800
ENDCHAR
STARTCHAR C
ENCODING 67
SWIDTH 869 0
DWIDTH 7 0
BBX 7 7 0 -1
BITMAP
00466400
08400330
53000000
61000000
36000000
05765730
00011000
ENDCHAR
STARTCHAR D
ENCODING 68
SWIDTH 910 0
DWIDTH 7 0
BBX 7 6 0 0
BITMAP
16664100
17112820
16000070
16000080
16000270
1A777810
ENDCHAR
STARTCHAR E
ENCODING 69
SWIDTH 754 0
DWIDTH 6 0
BBX 6 6 0 0
BITMAP
166662
171111
171110
1A6661
170000
1A7773
ENDCHAR
STARTCHAR F
ENCODING 70
SWIDTH 687 0
DWIDTH 6 0
BBX 6 6 0 0
BITMAP
166661
171110
161110
196660
160000
160000
ENDCHAR
STARTCHAR G
ENCODING 71
SWIDTH 910 0
DWIDTH 7 0
BBX 7 7 0 -1
BITMAP
00366400
08410340
53000000
71007760
36000070
05765660
00011000
ENDCHAR
STARTCHAR H
ENCODING 72
SWIDTH 949 0
DWIDTH 8 0
BBX 7 6 0 0
BITMAP
12000030
16000070
16111170
19666680
16000070
16000070
ENDCHAR
STARTCHAR I
ENCODING 73
SWIDTH 287 0
DWIDTH 2 0
BBX 2 6 0 0
BITMAP
12
16
16
16
16
16
ENDCHAR
STARTCHAR J
ENCODING 74
SWIDTH 590 0
DWIDTH 5 0
BBX 4 7 0 -1
BITMAP
0003
0007
0007
0007
0007
7675
0100
ENDCHAR
STARTCHAR K
ENCODING 75
SWIDTH 806 0
DWIDTH 6 0
BBX 6 6 0 0
BITMAP
120004
160371
177400
1A8100
161830
160057
ENDCHAR
STARTCHAR L
ENCODING 76
SWIDTH 701 0
DWIDTH 6 0
BBX 6 6 0 0
BITMAP
120000
160000
160000
160000
160000
1A7772
ENDCHAR
STARTCHAR M
ENCODING 77
SWIDTH 1139 0
DWIDTH 9 0
BBX 9 6 0 0
BITMAP
1300000210
1C10000B30
1680007630
1644036430
1608180430
1601B20430
ENDCHAR
STARTCHAR N
ENCODING 78
SWIDTH 936 0
DWIDTH 7 0
BBX 7 6 0 0
BITMAP
13000030
1B500070
16640070
16064070
16006470
16000680
ENDCHAR
STARTCHAR O
ENCODING 79
SWIDTH 983 0
DWIDTH 8 0
BBX 8 7 0 -1
BITMAP
00466300
08401470
53000053
61000035
35000072
05766740
00011000
ENDCHAR
STARTCHAR P
ENCODING 80
SWIDTH 818 0
DWIDTH 7 0
BBX 7 6 0 0
BITMAP
16664100
17113900
16000610
1A776600
16000000
16000000
ENDCHAR
STARTCHAR Q
ENCODING 81
SWIDTH 983 0
DWIDTH 8 0
BBX 8 7 0 -1
BITMAP
00466300
08401470
53000053
61000034
35003171
05766B95
00011001
ENDCHAR
STARTCHAR R
ENCODING 82
SWIDTH 833 0
DWIDTH 7 0
BBX 7 6 0 0
BITMAP
16654000
17123800
16000800
1A77A300
16005400
16000810
ENDCHAR
STARTCHAR S
ENCODING 83
SWIDTH 787 0
DWIDTH 6 0
BBX 6 7 0 -1
BITMAP
036651
360021
282000
015771
000008
376574
001100
ENDCHAR
STARTCHAR T
ENCODING 84
SWIDTH 708 0
DWIDTH 6 0
BBX 6 6 0 0
BITMAP
566663
117211
006100
006100
006100
006100
ENDCHAR
STARTCHAR U
ENCODING 85
SWIDTH 891 0
DWIDTH 7 0
BBX 7 7 0 -1
BITMAP
12000120
25000340
25000340
25000340
16000430
06757700
00010000
ENDCHAR
STARTCHAR V
ENCODING 86
SWIDTH 817 0
DWIDTH 7 0
BBX 7 6 0 0
BITMAP
30000210
53000800
08002600
05308000
00825000
005A0000
ENDCHAR
STARTCHAR W
ENCODING 87
SWIDTH 1266 0
DWIDTH 10 0
BBX 10 6 0 0
BITMAP
3000230003
5300880017
0801762071
0715217080
0268008440
0096004B00
ENDCHAR
STARTCHAR X
ENCODING 88
SWIDTH 821 0
DWIDTH 7 0
BBX 6 6 0 0
BITMAP
220003
081054
008650
005A10
046181
360018
ENDCHAR
STARTCHAR Y
ENCODING 89
SWIDTH 763 0
DWIDTH 6 0
BBX 6 6 0 0
BITMAP
300003
170062
035440
006700
003400
003400
ENDCHAR
STARTCHAR Z
ENCODING 90
SWIDTH 728 0
DWIDTH 6 0
BBX 6 6 0 0
BITMAP
266661
011280
000810
007100
063000
4A7772
ENDCHAR
STARTCHAR bracketleft
ENCODING 91
SWIDTH 409 0
DWIDTH 3 0
BBX 2 7 1 -1
BITMAP
95
70
70
70
70
70
65
ENDCHAR
STARTCHAR backslash
ENCODING 92
SWIDTH 500 0
DWIDTH 4 0
BBX 4 7 0 -1
BITMAP
4100
1600
0700
0250
0070
0034
0001
ENDCHAR
STARTCHAR bracketright
ENCODING 93
SWIDTH 409 0
DWIDTH 3 0
BBX 3 7 0 -1
BITMAP
4730
0340
0340
0340
0340
0340
4620
ENDCHAR
STARTCHAR asciicircum
ENCODING 94
SWIDTH 459 0
DWIDTH 4 0
BBX 4 3 0 3
BITMAP
0310
1770
6152
ENDCHAR
STARTCHAR underscore
ENCODING 95
SWIDTH 500 0
DWIDTH 4 0
BBX 4 1 0 -1
BITMAP
7777
ENDCHAR
STARTCHAR grave
ENCODING 96
SWIDTH 527 0
DWIDTH 4 0
BBX 3 2 0 4
BITMAP
1500
0230
ENDCHAR
STARTCHAR a
ENCODING 97
SWIDTH 888 0
DWIDTH 7 0
BBX 7 7 0 -1
BITMAP
03665100
04101810
00024730
17753540
71000440
38566940
00110000
ENDCHAR
STARTCHAR b
ENCODING 98
SWIDTH 836 0
DWIDTH 7 0
BBX 7 6 0 0
BITMAP
16665100
16112800
16112700
19666700
16000530
1A777800
ENDCHAR
STARTCHAR c
ENCODING 99
SWIDTH 869 0
DWIDTH 7 0
BBX 7 7 0 -1
BITMAP
00466400
08400330
53000000
61000000
36000000
05765730
00011000
ENDCHAR
STARTCHAR d
ENCODING 100
SWIDTH 910 0
DWIDTH 7 0
BBX 7 6 0 0
BITMAP
16664100
17112820
16000070
16000080
16000270
1A777810
ENDCHAR
STARTCHAR e
ENCODING 101
SWIDTH 910 0
DWIDTH 7 0
BBX 7 7 0 -1
BITMAP
00364100
07412720
43000070
67777750
36000000
05766720
00011000
ENDCHAR
STARTCHAR f
ENCODING 102
SWIDTH 817 0
DWIDTH 7 0
BBX 6 6 0 0
BITMAP
004566
094211
160000
1A7777
160000
160000
ENDCHAR
STARTCHAR g
ENCODING 103
SWIDTH 910 0
DWIDTH 7 0
BBX 7 7 0 -1
BITMAP
00366400
08410340
53000000
71007760
36000070
05765660
00011000
ENDCHAR
STARTCHAR h
ENCODING 104
SWIDTH 949 0
DWIDTH 8 0
BBX 7 6 0 0
BITMAP
12000030
16000070
16111170
19666680
16000070
16000070
ENDCHAR
STARTCHAR i
ENCODING 105
SWIDTH 287 0
DWIDTH 2 0
BBX 2 6 0 0
BITMAP
12
16
16
16
16
16
ENDCHAR
STARTCHAR j
ENCODING 106
SWIDTH 590 0
DWIDTH 5 0
BBX 4 7 0 -1
BITMAP
0003
0007
0007
0007
0007
7675
0100
ENDCHAR
STARTCHAR k
ENCODING 107
SWIDTH 867 0
DWIDTH 7 0
BBX 7 6 0 0
BITMAP
12000200
16000800
16027200
1A796000
16002900
16000350
ENDCHAR
STARTCHAR l
ENCODING 108
SWIDTH 709 0
DWIDTH 6 0
BBX 6 6 0 0
BITMAP
120000
160000
160000
160000
170000
077774
ENDCHAR
STARTCHAR m
ENCODING 109
SWIDTH 1246 0
DWIDTH 10 0
BBX 10 6 0 0
BITMAP
1247205720
1B30872080
1600430061
1600430061
1600430061
1600430061
ENDCHAR
STARTCHAR n
ENCODING 110
SWIDTH 933 0
DWIDTH 7 0
BBX 7 6 0 0
BITMAP
12157400
1A620450
16000080
16000080
16000080
16000080
ENDCHAR
STARTCHAR o
ENCODING 111
SWIDTH 983 0
DWIDTH 8 0
BBX 8 7 0 -1
BITMAP
00466300
08401470
53000053
61000035
35000072
05766740
00011000
ENDCHAR
STARTCHAR p
ENCODING 112
SWIDTH 818 0
DWIDTH 7 0
BBX 7 6 0 0
BITMAP
16664100
17113900
16000610
1A776600
16000000
16000000
ENDCHAR
STARTCHAR q
ENCODING 113
SWIDTH 983 0
DWIDTH 8 0
BBX 8 7 0 -1
BITMAP
00466300
08401470
53000053
61000034
35000071
057667A5
00011001
ENDCHAR
STARTCHAR r
ENCODING 114
SWIDTH 609 0
DWIDTH 5 0
BBX 5 6 0 0
BITMAP
122660
1A5000
160000
160000
160000
160000
ENDCHAR
STARTCHAR s
ENCODING 115
SWIDTH 787 0
DWIDTH 6 0
BBX 6 7 0 -1
BITMAP
036651
360021
282000
015771
000008
376574
001100
ENDCHAR
STARTCHAR t
ENCODING 116
SWIDTH 708 0
DWIDTH 6 0
BBX 6 6 0 0
BITMAP
566663
117211
006100
006100
006100
006100
ENDCHAR
STARTCHAR u
ENCODING 117
SWIDTH 931 0
DWIDTH 7 0
BBX 7 7 0 -1
BITMAP
12000030
26000080
26000080
26000080
16000280
07667580
00110000
ENDCHAR
STARTCHAR v
ENCODING 118
SWIDTH 817 0
DWIDTH 7 0
BBX 7 6 0 0
BITMAP
30000210
53000800
08002600
05308000
00825000
005A0000
ENDCHAR
STARTCHAR w
ENCODING 119
SWIDTH 1266 0
DWIDTH 10 0
BBX 10 6 0 0
BITMAP
3000230003
5300880017
0801762071
0715217080
0268008440
0096004B00
ENDCHAR
STARTCHAR x
ENCODING 120
SWIDTH 821 0
DWIDTH 7 0
BBX 6 6 0 0
BITMAP
220003
081054
008650
005A10
046181
360018
ENDCHAR
STARTCHAR y
ENCODING 121
SWIDTH 911 0
DWIDTH 7 0
BBX 7 7 0 -1
BITMAP
21000120
43000260
35000460
09426760
00341440
27667700
00110000
ENDCHAR
STARTCHAR z
ENCODING 122
SWIDTH 728 0
DWIDTH 6 0
BBX 6 6 0 0
BITMAP
266661
011280
000810
007100
063000
4A7772
ENDCHAR
STARTCHAR braceleft
ENCODING 123
SWIDTH 386 0
DWIDTH 3 0
BBX 3 7 0 -1
BITMAP
0640
0700
0700
6400
0700
0700
0340
ENDCHAR
STARTCHAR bar
ENCODING 124
SWIDTH 259 0
DWIDTH 2 0
BBX 2 8 0 -2
BITMAP
34
34
34
34
34
34
34
34
ENDCHAR
STARTCHAR braceright
ENCODING 125
SWIDTH 386 0
DWIDTH 3 0
BBX 3 7 0 -1
BITMAP
4600
0700
0700
0370
0700
0700
4400
ENDCHAR
STARTCHAR asciitilde
ENCODING 126
SWIDTH 634 0
DWIDTH 5 0
BBX 5 2 0 2
BITMAP
010000
356630
ENDCHAR
STARTCHAR nonbreakingspace
ENCODING 160
SWIDTH 375 0
DWIDTH 3 0
BBX 1 1 0 0
BITMAP
00
ENDCHAR
STARTCHAR exclamdown
ENCODING 161
SWIDTH 274 0
DWIDTH 2 0
BBX 2 6 0 0
BITMAP
12
12
14
25
36
36
ENDCHAR
STARTCHAR cent
ENCODING 162
SWIDTH 736 0
DWIDTH 6 0
BBX 6 7 0 -1
BITMAP
001610
076964
620600
800600
360601
037A72
000300
ENDCHAR
STARTCHAR sterling
ENCODING 163
SWIDTH 792 0
DWIDTH 6 0
BBX 6 7 0 -1
BITMAP
002662
027002
052000
397640
061000
3A7656
000011
ENDCHAR
STARTCHAR currency
ENCODING 164
SWIDTH 560 0
DWIDTH 4 0
BBX 4 4 0 1
BITMAP
2013
2968
2406
3868
ENDCHAR
STARTCHAR yen
ENCODING 165
SWIDTH 811 0
DWIDTH 6 0
BBX 6 6 0 0
BITMAP
210003
080044
038271
156A54
277B75
000700
ENDCHAR
STARTCHAR brokenbar
ENCODING 166
SWIDTH 259 0
DWIDTH 2 0
BBX 2 8 0 -2
BITMAP
22
34
34
12
22
34
34
12
ENDCHAR
STARTCHAR section
ENCODING 167
SWIDTH 500 0
DWIDTH 4 0
BBX 4 7 0 -1
BITMAP
0561
3510
3871
5417
03A2
2582
0100
ENDCHAR
STARTCHAR dieresis
ENCODING 168
SWIDTH 527 0
DWIDTH 4 0
BBX 3 2 1 4
BITMAP
1100
4310
ENDCHAR
STARTCHAR copyright
ENCODING 169
SWIDTH 770 0
DWIDTH 6 0
BBX 6 6 0 0
BITMAP
004510
174572
644216
660006
446636
056660
ENDCHAR
STARTCHAR ordfeminine
ENCODING 170
SWIDTH 497 0
DWIDTH 4 0
BBX 4 5 0 1
BITMAP
2551
1457
8127
3863
1221
ENDCHAR
STARTCHAR guillemotleft
ENCODING 171
SWIDTH 440 0
DWIDTH 4 0
BBX 4 3 0 1
BITMAP
3681
7360
1551
ENDCHAR
STARTCHAR logicalnot
ENCODING 172
SWIDTH 634 0
DWIDTH 5 0
BBX 5 3 0 1
BITMAP
266630
000060
000010
ENDCHAR
STARTCHAR uni00AD
ENCODING 173
SWIDTH 540 0
DWIDTH 4 0
BBX 4 1 0 2
BITMAP
3775
ENDCHAR
STARTCHAR registered
ENCODING 174
SWIDTH 600 0
DWIDTH 5 0
BBX 5 5 0 1
BITMAP
035200
364610
556250
361720
035200
ENDCHAR
STARTCHAR macron
ENCODING 175
SWIDTH 527 0
DWIDTH 4 0
BBX 3 1 1 4
BITMAP
6710
ENDCHAR
STARTCHAR degree
ENCODING 176
SWIDTH 373 0
DWIDTH 3 0
BBX 3 3 0 3
BITMAP
0500
6260
2610
ENDCHAR
STARTCHAR plusminus
ENCODING 177
SWIDTH 634 0
DWIDTH 5 0
BBX 5 5 0 0
BITMAP
004000
138310
138310
004000
266630
ENDCHAR
STARTCHAR twosuperior
ENCODING 178
SWIDTH 511 0
DWIDTH 4 0
BBX 4 4 0 2
BITMAP
3650
2017
0162
5B64
ENDCHAR
STARTCHAR threesuperior
ENCODING 179
SWIDTH 512 0
DWIDTH 4 0
BBX 4 5 0 1
BITMAP
3550
1035
0474
5565
0100
ENDCHAR
STARTCHAR acute
ENCODING 180
SWIDTH 527 0
DWIDTH 4 0
BBX 3 2 1 4
BITMAP
0330
2400
ENDCHAR
STARTCHAR micro
ENCODING 181
SWIDTH 705 0
DWIDTH 6 0
BBX 5 6 0 -2
BITMAP
050050
070070
260170
586570
701000
400000
ENDCHAR
STARTCHAR paragraph
ENCODING 182
SWIDTH 585 0
DWIDTH 5 0
BBX 4 6 0 0
BITMAP
0354
5F95
7F95
1885
0055
0055
ENDCHAR
STARTCHAR periodcentered
ENCODING 183
SWIDTH 185 0
DWIDTH 1 0
BBX 2 2 0 2
BITMAP
10
61
ENDCHAR
STARTCHAR cedilla
ENCODING 184
SWIDTH 527 0
DWIDTH 4 0
BBX 2 2 1 -2
BITMAP
27
45
ENDCHAR
STARTCHAR onesuperior
ENCODING 185
SWIDTH 261 0
DWIDTH 2 0
BBX 2 4 0 2
BITMAP
32
36
16
16
ENDCHAR
STARTCHAR ordmasculine
ENCODING 186
SWIDTH 520 0
DWIDTH 4 0
BBX 4 5 0 1
BITMAP
0551
7107
6217
2773
1222
ENDCHAR
STARTCHAR guillemotright
ENCODING 187
SWIDTH 440 0
DWIDTH 4 0
BBX 4 3 0 1
BITMAP
5480
1872
5250
ENDCHAR
STARTCHAR onequarter
ENCODING 188
SWIDTH 857 0
DWIDTH 7 0
BBX 7 6 0 0
BITMAP
32001200
27007000
07071000
03534700
03545700
17045920
ENDCHAR
STARTCHAR onehalf
ENCODING 189
SWIDTH 937 0
DWIDTH 8 0
BBX 7 6 0 0
BITMAP
32001200
27007000
07071000
03535560
03500260
17007A50
ENDCHAR
STARTCHAR threequarters
ENCODING 190
SWIDTH 978 0
DWIDTH 8 0
BBX 8 6 0 0
BITMAP
35300210
12800700
02707100
35552470
00345470
01604592
ENDCHAR
STARTCHAR questiondown
ENCODING 191
SWIDTH 568 0
DWIDTH 5 0
BBX 5 7 0 -1
BITMAP
002200
002200
003400
175100
620000
285710
001000
ENDCHAR
STARTCHAR Agrave
ENCODING 192
SWIDTH 812 0
DWIDTH 7 0
BBX 7 7 0 0
BITMAP
00740000
00140000
00781000
01717000
07107100
1A777700
71000620
ENDCHAR
STARTCHAR Aacute
ENCODING 193
SWIDTH 812 0
DWIDTH 7 0
BBX 7 7 0 0
BITMAP
00164000
00140000
00781000
01717000
07107100
1A777700
71000620
ENDCHAR
STARTCHAR Acircumflex
ENCODING 194
SWIDTH 812 0
DWIDTH 7 0
BBX 7 7 0 0
BITMAP
01674000
00140000
00781000
01717000
07107100
1A777700
71000620
ENDCHAR
STARTCHAR Atilde
ENCODING 195
SWIDTH 812 0
DWIDTH 7 0
BBX 7 7 0 0
BITMAP
00765000
00140000
00781000
01717000
07107100
1A777700
71000620
ENDCHAR
STARTCHAR Adieresis
ENCODING 196
SWIDTH 812 0
DWIDTH 7 0
BBX 7 7 0 0
BITMAP
00523000
00140000
00781000
01717000
07107100
1A777700
71000620
ENDCHAR
STARTCHAR Aring
ENCODING 197
SWIDTH 812 0
DWIDTH 7 0
BBX 7 8 0 0
BITMAP
00130000
00873000
00260000
00781000
01717000
07107100
1A777700
71000620
ENDCHAR
STARTCHAR AE
ENCODING 198
SWIDTH 1172 0
DWIDTH 9 0
BBX 9 6 0 0
BITMAP
0003666640
0018911110
0081811100
0540966630
1A77A00000
8100977750
ENDCHAR
STARTCHAR Ccedilla
ENCODING 199
SWIDTH 869 0
DWIDTH 7 0
BBX 7 8 0 -2
BITMAP
00466400
08400330
53000000
61000000
36000000
05765730
00065000
00153000
ENDCHAR
STARTCHAR Egrave
ENCODING 200
SWIDTH 754 0
DWIDTH 6 0
BBX 6 7 0 0
BITMAP
017300
166662
171111
171110
1A6661
170000
1A7773
ENDCHAR
STARTCHAR Eacute
ENCODING 201
SWIDTH 754 0
DWIDTH 6 0
BBX 6 7 0 0
BITMAP
001730
166662
171111
171110
1A6661
170000
1A7773
ENDCHAR
STARTCHAR Ecircumflex
ENCODING 202
SWIDTH 754 0
DWIDTH 6 0
BBX 6 7 0 0
BITMAP
027730
166662
171111
171110
1A6661
170000
1A7773
ENDCHAR
STARTCHAR Edieresis
ENCODING 203
SWIDTH 754 0
DWIDTH 6 0
BBX 6 7 0 0
BITMAP
005310
166662
171111
171110
1A6661
170000
1A7773
ENDCHAR
STARTCHAR Igrave
ENCODING 204
SWIDTH 287 0
DWIDTH 2 0
BBX 3 7 -1 0
BITMAP
1730
0130
0160
0160
0160
0160
0160
ENDCHAR
STARTCHAR Iacute
ENCODING 205
SWIDTH 287 0
DWIDTH 2 0
BBX 3 7 0 0
BITMAP
1630
1200
1600
1600
1600
1600
1600
ENDCHAR
STARTCHAR Icircumflex
ENCODING 206
SWIDTH 287 0
DWIDTH 2 0
BBX 4 7 -1 0
BITMAP
1773
0120
0160
0160
0160
0160
0160
ENDCHAR
STARTCHAR Idieresis
ENCODING 207
SWIDTH 287 0
DWIDTH 2 0
BBX 3 7 0 0
BITMAP
5320
1200
1600
1600
1600
1600
1600
ENDCHAR
STARTCHAR Eth
ENCODING 208
SWIDTH 910 0
DWIDTH 7 0
BBX 7 6 0 0
BITMAP
16654100
17123930
16000080
6A640080
16000170
1A777710
ENDCHAR
STARTCHAR Ntilde
ENCODING 209
SWIDTH 936 0
DWIDTH 7 0
BBX 7 7 0 0
BITMAP
00466100
13101030
1B500070
16640070
16064070
16006470
16000680
ENDCHAR
STARTCHAR Ograve
ENCODING 210
SWIDTH 983 0
DWIDTH 8 0
BBX 8 8 0 -1
BITMAP
00272000
00466300
08401470
53000053
61000035
35000072
05766740
00011000
ENDCHAR
STARTCHAR Oacute
ENCODING 211
SWIDTH 983 0
DWIDTH 8 0
BBX 8 8 0 -1
BITMAP
00027200
00476300
08401470
53000053
61000035
35000072
05766740
00011000
ENDCHAR
STARTCHAR Ocircumflex
ENCODING 212
SWIDTH 983 0
DWIDTH 8 0
BBX 8 8 0 -1
BITMAP
00277200
00466300
08401470
53000053
61000035
35000072
05766740
00011000
ENDCHAR
STARTCHAR Otilde
ENCODING 213
SWIDTH 983 0
DWIDTH 8 0
BBX 8 8 0 -1
BITMAP
00366200
00467300
08401470
53000053
61000035
35000072
05766740
00011000
ENDCHAR
STARTCHAR Odieresis
ENCODING 214
SWIDTH 983 0
DWIDTH 8 0
BBX 8 8 0 -1
BITMAP
00144000
00476300
08401470
53000053
61000035
35000072
05766740
00011000
ENDCHAR
STARTCHAR multiply
ENCODING 215
SWIDTH 634 0
DWIDTH 5 0
BBX 4 4 1 1
BITMAP
1010
7470
2C20
7071
ENDCHAR
STARTCHAR Oslash
ENCODING 216
SWIDTH 983 0
DWIDTH 8 0
BBX 8 8 0 -1
BITMAP
00000010
00466630
08402870
53007053
71062035
35350072
06B66740
05111000
ENDCHAR
STARTCHAR Ugrave
ENCODING 217
SWIDTH 891 0
DWIDTH 7 0
BBX 7 8 0 -1
BITMAP
00560000
12000120
25000340
25000340
25000340
16000430
06757700
00010000
ENDCHAR
STARTCHAR Uacute
ENCODING 218
SWIDTH 891 0
DWIDTH 7 0
BBX 7 8 0 -1
BITMAP
00056000
12000120
25000340
25000340
25000340
16000430
06757700
00010000
ENDCHAR
STARTCHAR Ucircumflex
ENCODING 219
SWIDTH 891 0
DWIDTH 7 0
BBX 7 8 0 -1
BITMAP
00576000
12000120
25000340
25000340
25000340
16000430
06757700
00010000
ENDCHAR
STARTCHAR Udieresis
ENCODING 220
SWIDTH 891 0
DWIDTH 7 0
BBX 7 8 0 -1
BITMAP
00415000
12000120
25000340
25000340
25000340
16000430
06757700
00010000
ENDCHAR
STARTCHAR Yacute
ENCODING 221
SWIDTH 763 0
DWIDTH 6 0
BBX 6 7 0 0
BITMAP
002730
300003
170062
035440
006700
003400
003400
ENDCHAR
STARTCHAR Thorn
ENCODING 222
SWIDTH 787 0
DWIDTH 6 0
BBX 6 6 0 0
BITMAP
120000
1A7751
160028
160008
1A7773
160000
ENDCHAR
STARTCHAR germandbls
ENCODING 223
SWIDTH 863 0
DWIDTH 7 0
BBX 7 7 0 -1
BITMAP
01666100
18101900
44245700
44134810
44000260
44766810
00010000
ENDCHAR
STARTCHAR agrave
ENCODING 224
SWIDTH 888 0
DWIDTH 7 0
BBX 7 8 0 -1
BITMAP
00550000
03675100
04101810
00024730
17753540
71000440
38566940
00110000
ENDCHAR
STARTCHAR aacute
ENCODING 225
SWIDTH 888 0
DWIDTH 7 0
BBX 7 8 0 -1
BITMAP
00056000
03675100
04101810
00024730
17753540
71000440
38566940
00110000
ENDCHAR
STARTCHAR acircumflex
ENCODING 226
SWIDTH 888 0
DWIDTH 7 0
BBX 7 8 0 -1
BITMAP
00576000
03665100
04101810
00024730
17753540
71000440
38566940
00110000
ENDCHAR
STARTCHAR atilde
ENCODING 227
SWIDTH 888 0
DWIDTH 7 0
BBX 7 8 0 -1
BITMAP
00566000
03676100
04101810
00024730
17753540
71000440
38566940
00110000
ENDCHAR
STARTCHAR adieresis
ENCODING 228
SWIDTH 888 0
DWIDTH 7 0
BBX 7 8 0 -1
BITMAP
00405000
03665100
04101810
00024730
17753540
71000440
38566940
00110000
ENDCHAR
STARTCHAR aring
ENCODING 229
SWIDTH 888 0
DWIDTH 7 0
BBX 7 9 0 -1
BITMAP
00030000
00656000
03695100
04101810
00024730
17753540
71000440
38566940
00110000
ENDCHAR
STARTCHAR ae
ENCODING 230
SWIDTH 1551 0
DWIDTH 12 0
BBX 12 7 0 -1
BITMAP
036651026510
041018751164
000247700007
177535977777
710001900000
385677476574
001100000100
ENDCHAR
STARTCHAR ccedilla
ENCODING 231
SWIDTH 869 0
DWIDTH 7 0
BBX 7 8 0 -2
BITMAP
00466400
08400330
53000000
61000000
36000000
05765730
00065000
00153000
ENDCHAR
STARTCHAR egrave
ENCODING 232
SWIDTH 910 0
DWIDTH 7 0
BBX 7 8 0 -1
BITMAP
00560000
00364100
07412720
43000070
67777750
36000000
05766720
00011000
ENDCHAR
STARTCHAR eacute
ENCODING 233
SWIDTH 910 0
DWIDTH 7 0
BBX 7 8 0 -1
BITMAP
00047000
00364100
07412720
43000070
67777750
36000000
05766720
00011000
ENDCHAR
STARTCHAR ecircumflex
ENCODING 234
SWIDTH 910 0
DWIDTH 7 0
BBX 7 8 0 -1
BITMAP
00476000
00365100
07412720
43000070
67777750
36000000
05766720
00011000
ENDCHAR
STARTCHAR edieresis
ENCODING 235
SWIDTH 910 0
DWIDTH 7 0
BBX 7 8 0 -1
BITMAP
00315000
00365100
07412720
43000070
67777750
36000000
05766720
00011000
ENDCHAR
STARTCHAR igrave
ENCODING 236
SWIDTH 287 0
DWIDTH 2 0
BBX 3 7 -1 0
BITMAP
1730
0130
0160
0160
0160
0160
0160
ENDCHAR
STARTCHAR iacute
ENCODING 237
SWIDTH 287 0
DWIDTH 2 0
BBX 3 7 0 0
BITMAP
1630
1200
1600
1600
1600
1600
1600
ENDCHAR
STARTCHAR icircumflex
ENCODING 238
SWIDTH 287 0
DWIDTH 2 0
BBX 4 7 -1 0
BITMAP
1773
0120
0160
0160
0160
0160
0160
ENDCHAR
STARTCHAR idieresis
ENCODING 239
SWIDTH 287 0
DWIDTH 2 0
BBX 3 7 0 0
BITMAP
5320
1200
1600
1600
1600
1600
1600
ENDCHAR
STARTCHAR eth
ENCODING 240
SWIDTH 910 0
DWIDTH 7 0
BBX 7 6 0 0
BITMAP
16654100
17123930
16000080
6A640080
16000170
1A777710
ENDCHAR
STARTCHAR ntilde
ENCODING 241
SWIDTH 933 0
DWIDTH 7 0
BBX 7 7 0 0
BITMAP
00566000
12257400
1A620450
16000080
16000080
16000080
16000080
ENDCHAR
STARTCHAR ograve
ENCODING 242
SWIDTH 983 0
DWIDTH 8 0
BBX 8 8 0 -1
BITMAP
00272000
00466300
08401470
53000053
61000035
35000072
05766740
00011000
ENDCHAR
STARTCHAR oacute
ENCODING 243
SWIDTH 983 0
DWIDTH 8 0
BBX 8 8 0 -1
BITMAP
00027200
00476300
08401470
53000053
61000035
35000072
05766740
00011000
ENDCHAR
STARTCHAR ocircumflex
ENCODING 244
SWIDTH 983 0
DWIDTH 8 0
BBX 8 8 0 -1
BITMAP
00277200
00466300
08401470
53000053
61000035
35000072
05766740
00011000
ENDCHAR
STARTCHAR otilde
ENCODING 245
SWIDTH 983 0
DWIDTH 8 0
BBX 8 8 0 -1
BITMAP
00366200
00467300
08401470
53000053
61000035
35000072
05766740
00011000
ENDCHAR
STARTCHAR odieresis
ENCODING 246
SWIDTH 983 0
DWIDTH 8 0
BBX 8 8 0 -1
BITMAP
00144000
00476300
08401470
53000053
61000035
35000072
05766740
00011000
ENDCHAR
STARTCHAR divide
ENCODING 247
SWIDTH 634 0
DWIDTH 5 0
BBX 5 4 0 1
BITMAP
002000
003000
266630
005000
ENDCHAR
STARTCHAR oslash
ENCODING 248
SWIDTH 983 0
DWIDTH 8 0
BBX 8 8 0 -1
BITMAP
00000010
00466630
08402870
53007053
71062035
35350072
06B66740
05111000
ENDCHAR
STARTCHAR ugrave
ENCODING 249
SWIDTH 931 0
DWIDTH 7 0
BBX 7 8 0 -1
BITMAP
00461000
12000030
26000080
26000080
26000080
16000280
07667580
00110000
ENDCHAR
STARTCHAR uacute
ENCODING 250
SWIDTH 931 0
DWIDTH 7 0
BBX 7 8 0 -1
BITMAP
00047000
12000030
26000080
26000080
26000080
16000280
07667580
00110000
ENDCHAR
STARTCHAR ucircumflex
ENCODING 251
SWIDTH 931 0
DWIDTH 7 0
BBX 7 8 0 -1
BITMAP
00476100
12000030
26000080
26000080
26000080
16000280
07667580
00110000
ENDCHAR
STARTCHAR udieresis
ENCODING 252
SWIDTH 931 0
DWIDTH 7 0
BBX 7 8 0 -1
BITMAP
00325000
12000030
26000080
26000080
26000080
16000280
07667580
00110000
ENDCHAR
STARTCHAR yacute
ENCODING 253
SWIDTH 911 0
DWIDTH 7 0
BBX 7 8 0 -1
BITMAP
00056000
21000120
43000260
35000460
09426760
00341440
27667700
00110000
ENDCHAR
STARTCHAR thorn
ENCODING 254
SWIDTH 787 0
DWIDTH 6 0
BBX 6 6 0 0
BITMAP
120000
1A7751
160028
160008
1A7773
160000
ENDCHAR
STARTCHAR ydieresis
ENCODING 255
SWIDTH 911 0
DWIDTH 7 0
BBX 7 8 0 -1
BITMAP
00405000
21000120
43000260
35000460
09426760
00341440
27667700
00110000
ENDCHAR
STARTCHAR Amacron
ENCODING 256
SWIDTH 812 0
DWIDTH 7 0
BBX 7 7 0 0
BITMAP
00572000
00140000
00781000
01717000
07107100
1A777700
71000620
ENDCHAR
STARTCHAR amacron
ENCODING 257
SWIDTH 888 0
DWIDTH 7 0
BBX 7 8 0 -1
BITMAP
00474000
03675100
04101810
00024730
17753540
71000440
38566940
00110000
ENDCHAR
STARTCHAR Abreve
ENCODING 258
SWIDTH 812 0
DWIDTH 7 0
BBX 7 7 0 0
BITMAP
00764000
00140000
00781000
01717000
07107100
1A777700
71000620
ENDCHAR
STARTCHAR abreve
ENCODING 259
SWIDTH 888 0
DWIDTH 7 0
BBX 7 8 0 -1
BITMAP
00656000
03675100
04101810
00024730
17753540
71000440
38566940
00110000
ENDCHAR
STARTCHAR Aogonek
ENCODING 260
SWIDTH 812 0
DWIDTH 7 0
BBX 7 8 0 -2
BITMAP
00140000
00781000
01717000
07107100
1A777700
71000620
00000710
00000350
ENDCHAR
STARTCHAR aogonek
ENCODING 261
SWIDTH 888 0
DWIDTH 7 0
BBX 7 8 0 -2
BITMAP
03665100
04101810
00024730
17753540
71000440
38566940
00110700
00000440
ENDCHAR
STARTCHAR Cacute
ENCODING 262
SWIDTH 869 0
DWIDTH 7 0
BBX 7 8 0 -1
BITMAP
00037100
00476400
08400330
53000000
61000000
36000000
05765730
00011000
ENDCHAR
STARTCHAR cacute
ENCODING 263
SWIDTH 869 0
DWIDTH 7 0
BBX 7 8 0 -1
BITMAP
00037100
00476400
08400330
53000000
61000000
36000000
05765730
00011000
ENDCHAR
STARTCHAR Ccircumflex
ENCODING 264
SWIDTH 869 0
DWIDTH 7 0
BBX 7 8 0 -1
BITMAP
00377200
00466400
08400330
53000000
61000000
36000000
05765730
00011000
ENDCHAR
STARTCHAR ccircumflex
ENCODING 265
SWIDTH 869 0
DWIDTH 7 0
BBX 7 8 0 -1
BITMAP
00377200
00466400
08400330
53000000
61000000
36000000
05765730
00011000
ENDCHAR
STARTCHAR Cdotaccent
ENCODING 266
SWIDTH 869 0
DWIDTH 7 0
BBX 7 8 0 -1
BITMAP
00032000
00476400
08400330
53000000
61000000
36000000
05765730
00011000
ENDCHAR
STARTCHAR cdotaccent
ENCODING 267
SWIDTH 869 0
DWIDTH 7 0
BBX 7 8 0 -1
BITMAP
00032000
00476400
08400330
53000000
61000000
36000000
05765730
00011000
ENDCHAR
STARTCHAR Ccaron
ENCODING 268
SWIDTH 869 0
DWIDTH 7 0
BBX 7 8 0 -1
BITMAP
00377200
00476400
08400330
53000000
61000000
36000000
05765730
00011000
ENDCHAR
STARTCHAR ccaron
ENCODING 269
SWIDTH 869 0
DWIDTH 7 0
BBX 7 8 0 -1
BITMAP
00377200
00476400
08400330
53000000
61000000
36000000
05765730
00011000
ENDCHAR
STARTCHAR Dcaron
ENCODING 270
SWIDTH 910 0
DWIDTH 7 0
BBX 7 7 0 0
BITMAP
02773000
16664100
17112820
16000070
16000080
16000270
1A777810
ENDCHAR
STARTCHAR dcaron
ENCODING 271
SWIDTH 910 0
DWIDTH 7 0
BBX 7 7 0 0
BITMAP
02773000
16664100
17112820
16000070
16000080
16000270
1A777810
ENDCHAR
STARTCHAR Dcroat
ENCODING 272
SWIDTH 910 0
DWIDTH 7 0
BBX 7 6 0 0
BITMAP
16654100
17123930
16000080
6A640080
16000170
1A777710
ENDCHAR
STARTCHAR dcroat
ENCODING 273
SWIDTH 910 0
DWIDTH 7 0
BBX 7 6 0 0
BITMAP
16654100
17123930
16000080
6A640080
16000170
1A777710
ENDCHAR
STARTCHAR Emacron
ENCODING 274
SWIDTH 754 0
DWIDTH 6 0
BBX 6 7 0 0
BITMAP
006710
166662
171111
171110
1A6661
170000
1A7773
ENDCHAR
STARTCHAR emacron
ENCODING 275
SWIDTH 910 0
DWIDTH 7 0
BBX 7 8 0 -1
BITMAP
00375000
00365100
07412720
43000070
67777750
36000000
05766720
00011000
ENDCHAR
STARTCHAR Ebreve
ENCODING 276
SWIDTH 754 0
DWIDTH 6 0
BBX 6 7 0 0
BITMAP
017630
166662
171111
171110
1A6661
170000
1A7773
ENDCHAR
STARTCHAR ebreve
ENCODING 277
SWIDTH 910 0
DWIDTH 7 0
BBX 7 8 0 -1
BITMAP
00557000
00364100
07412720
43000070
67777750
36000000
05766720
00011000
ENDCHAR
STARTCHAR Edotaccent
ENCODING 278
SWIDTH 754 0
DWIDTH 6 0
BBX 6 7 0 0
BITMAP
002300
166662
171111
171110
1A6661
170000
1A7773
ENDCHAR
STARTCHAR edotaccent
ENCODING 279
SWIDTH 910 0
DWIDTH 7 0
BBX 7 8 0 -1
BITMAP
00050000
00364100
07412720
43000070
67777750
36000000
05766720
00011000
ENDCHAR
STARTCHAR Eogonek
ENCODING 280
SWIDTH 754 0
DWIDTH 6 0
BBX 6 8 0 -2
BITMAP
166662
171111
171110
1A6661
170000
1A7773
000260
000152
ENDCHAR
STARTCHAR eogonek
ENCODING 281
SWIDTH 910 0
DWIDTH 7 0
BBX 7 8 0 -2
BITMAP
00364100
07412720
43000070
67777750
36000000
05766830
00011820
00000320
ENDCHAR
STARTCHAR Ecaron
ENCODING 282
SWIDTH 754 0
DWIDTH 6 0
BBX 6 7 0 0
BITMAP
027730
166662
171111
171110
1A6661
170000
1A7773
ENDCHAR
STARTCHAR ecaron
ENCODING 283
SWIDTH 910 0
DWIDTH 7 0
BBX 7 8 0 -1
BITMAP
00576000
00364100
07412720
43000070
67777750
36000000
05766720
00011000
ENDCHAR
STARTCHAR Gcircumflex
ENCODING 284
SWIDTH 910 0
DWIDTH 7 0
BBX 7 8 0 -1
BITMAP
00277200
00366400
08410340
53000000
71007760
36000070
05765660
00011000
ENDCHAR
STARTCHAR gcircumflex
ENCODING 285
SWIDTH 910 0
DWIDTH 7 0
BBX 7 8 0 -1
BITMAP
00277200
00366400
08410340
53000000
71007760
36000070
05765660
00011000
ENDCHAR
STARTCHAR Gbreve
ENCODING 286
SWIDTH 910 0
DWIDTH 7 0
BBX 7 8 0 -1
BITMAP
00267100
00377400
08410340
53000000
71007760
36000070
05765660
00011000
ENDCHAR
STARTCHAR gbreve
ENCODING 287
SWIDTH 910 0
DWIDTH 7 0
BBX 7 8 0 -1
BITMAP
00267100
00377400
08410340
53000000
71007760
36000070
05765660
00011000
ENDCHAR
STARTCHAR Gdotaccent
ENCODING 288
SWIDTH 910 0
DWIDTH 7 0
BBX 7 8 0 -1
BITMAP
00032000
00366400
08410340
53000000
71007760
36000070
05765660
00011000
ENDCHAR
STARTCHAR gdotaccent
ENCODING 289
SWIDTH 910 0
DWIDTH 7 0
BBX 7 8 0 -1
BITMAP
00032000
00366400
08410340
53000000
71007760
36000070
05765660
00011000
ENDCHAR
STARTCHAR Gcommaaccent
ENCODING 290
SWIDTH 910 0
DWIDTH 7 0
BBX 7 8 0 -2
BITMAP
00366400
08410340
53000000
71007760
36000070
05765660
00023000
00032000
ENDCHAR
STARTCHAR gcommaaccent
ENCODING 291
SWIDTH 910 0
DWIDTH 7 0
BBX 7 8 0 -2
BITMAP
00366400
08410340
53000000
71007760
36000070
05765660
00023000
00032000
ENDCHAR
STARTCHAR Hcircumflex
ENCODING 292
SWIDTH 949 0
DWIDTH 8 0
BBX 7 7 0 0
BITMAP
00377100
12000030
16000070
16111170
19666680
16000070
16000070
ENDCHAR
STARTCHAR hcircumflex
ENCODING 293
SWIDTH 949 0
DWIDTH 8 0
BBX 7 7 0 0
BITMAP
00377100
12000030
16000070
16111170
19666680
16000070
16000070
ENDCHAR
STARTCHAR Hbar
ENCODING 294
SWIDTH 949 0
DWIDTH 8 0
BBX 8 6 0 0
BITMAP
12000030
48444492
38444491
19666680
16000070
16000070
ENDCHAR
STARTCHAR hbar
ENCODING 295
SWIDTH 949 0
DWIDTH 8 0
BBX 8 6 0 0
BITMAP
12000030
48444492
38444491
19666680
16000070
16000070
ENDCHAR
STARTCHAR Itilde
ENCODING 296
SWIDTH 287 0
DWIDTH 2 0
BBX 4 7 -1 0
BITMAP
1764
0130
0160
0160
0160
0160
0160
ENDCHAR
STARTCHAR itilde
ENCODING 297
SWIDTH 287 0
DWIDTH 2 0
BBX 4 7 -1 0
BITMAP
1764
0130
0160
0160
0160
0160
0160
ENDCHAR
STARTCHAR Imacron
ENCODING 298
SWIDTH 287 0
DWIDTH 2 0
BBX 3 7 0 0
BITMAP
6710
1200
1600
1600
1600
1600
1600
ENDCHAR
STARTCHAR imacron
ENCODING 299
SWIDTH 287 0
DWIDTH 2 0
BBX 3 7 0 0
BITMAP
6720
1200
1600
1600
1600
1600
1600
ENDCHAR
STARTCHAR Ibreve
ENCODING 300
SWIDTH 287 0
DWIDTH 2 0
BBX 4 7 -1 0
BITMAP
1763
0130
0160
0160
0160
0160
0160
ENDCHAR
STARTCHAR ibreve
ENCODING 301
SWIDTH 287 0
DWIDTH 2 0
BBX 4 7 -1 0
BITMAP
1763
0130
0160
0160
0160
0160
0160
ENDCHAR
STARTCHAR Iogonek
ENCODING 302
SWIDTH 287 0
DWIDTH 2 0
BBX 2 8 0 -2
BITMAP
12
16
16
16
16
16
71
35
ENDCHAR
STARTCHAR iogonek
ENCODING 303
SWIDTH 287 0
DWIDTH 2 0
BBX 2 8 0 -2
BITMAP
12
16
16
16
16
16
71
35
ENDCHAR
STARTCHAR Idotaccent
ENCODING 304
SWIDTH 287 0
DWIDTH 2 0
BBX 2 7 0 0
BITMAP
14
12
16
16
16
16
16
ENDCHAR
STARTCHAR dotlessi
ENCODING 305
SWIDTH 287 0
DWIDTH 2 0
BBX 2 6 0 0
BITMAP
12
16
16
16
16
16
ENDCHAR
STARTCHAR IJ
ENCODING 306
SWIDTH 877 0
DWIDTH 7 0
BBX 7 7 0 -1
BITMAP
12000210
16000520
16000520
16000520
16000610
16566700
00010000
ENDCHAR
STARTCHAR ij
ENCODING 307
SWIDTH 877 0
DWIDTH 7 0
BBX 7 7 0 -1
BITMAP
12000210
16000520
16000520
16000520
16000610
16566700
00010000
ENDCHAR
STARTCHAR Jcircumflex
ENCODING 308
SWIDTH 590 0
DWIDTH 5 0
BBX 5 8 0 -1
BITMAP
005760
000300
000700
000700
000700
000700
767500
010000
ENDCHAR
STARTCHAR jcircumflex
ENCODING 309
SWIDTH 590 0
DWIDTH 5 0
BBX 5 8 0 -1
BITMAP
005760
000300
000700
000700
000700
000700
767500
010000
ENDCHAR
STARTCHAR Kcommaaccent
ENCODING 310
SWIDTH 806 0
DWIDTH 6 0
BBX 6 8 0 -2
BITMAP
120004
160371
177400
1A8100
161830
160057
000300
001300
ENDCHAR
STARTCHAR kcommaaccent
ENCODING 311
SWIDTH 867 0
DWIDTH 7 0
BBX 7 8 0 -2
BITMAP
12000200
16000800
16027200
1A796000
16002900
16000350
00030000
00040000
ENDCHAR
STARTCHAR kgreenlandic
ENCODING 312
SWIDTH 867 0
DWIDTH 7 0
BBX 7 6 0 0
BITMAP
12000200
16000800
16027200
1A796000
16002900
16000350
ENDCHAR
STARTCHAR Lacute
ENCODING 313
SWIDTH 701 0
DWIDTH 6 0
BBX 6 7 0 0
BITMAP
163000
120000
160000
160000
160000
160000
1A7772
ENDCHAR
STARTCHAR lacute
ENCODING 314
SWIDTH 709 0
DWIDTH 6 0
BBX 6 7 0 0
BITMAP
163000
120000
160000
160000
160000
170000
077774
ENDCHAR
STARTCHAR Lcommaaccent
ENCODING 315
SWIDTH 701 0
DWIDTH 6 0
BBX 6 8 0 -2
BITMAP
120000
160000
160000
160000
160000
1A7772
001300
001300
ENDCHAR
STARTCHAR lcommaaccent
ENCODING 316
SWIDTH 709 0
DWIDTH 6 0
BBX 6 8 0 -2
BITMAP
120000
160000
160000
160000
170000
077774
000300
000400
ENDCHAR
STARTCHAR Lcaron
ENCODING 317
SWIDTH 701 0
DWIDTH 6 0
BBX 6 6 0 0
BITMAP
120210
160610
160000
160000
160000
1A7772
ENDCHAR
STARTCHAR lcaron
ENCODING 318
SWIDTH 709 0
DWIDTH 6 0
BBX 6 6 0 0
BITMAP
120210
160610
160000
160000
170000
077774
ENDCHAR
STARTCHAR Ldot
ENCODING 319
SWIDTH 701 0
DWIDTH 6 0
BBX 6 6 0 0
BITMAP
120000
160000
160100
160430
160000
1A7772
ENDCHAR
STARTCHAR ldotaccent
ENCODING 320
SWIDTH 709 0
DWIDTH 6 0
BBX 6 6 0 0
BITMAP
120000
160000
160110
160340
170000
077774
ENDCHAR
STARTCHAR Lslash
ENCODING 321
SWIDTH 701 0
DWIDTH 6 0
BBX 6 6 0 0
BITMAP
120000
160000
175000
791000
160000
1A7772
ENDCHAR
STARTCHAR lslash
ENCODING 322
SWIDTH 709 0
DWIDTH 6 0
BBX 6 6 0 0
BITMAP
120000
160000
175000
791000
170000
077774
ENDCHAR
STARTCHAR Nacute
ENCODING 323
SWIDTH 936 0
DWIDTH 7 0
BBX 7 7 0 0
BITMAP
00047000
13000030
1B500070
16640070
16064070
16006470
16000680
ENDCHAR
STARTCHAR nacute
ENCODING 324
SWIDTH 933 0
DWIDTH 7 0
BBX 7 7 0 0
BITMAP
00047000
12167400
1A620450
16000080
16000080
16000080
16000080
ENDCHAR
STARTCHAR Ncommaaccent
ENCODING 325
SWIDTH 936 0
DWIDTH 7 0
BBX 7 8 0 -2
BITMAP
13000030
1B500070
16640070
16064070
16006470
16000680
00030000
00040000
ENDCHAR
STARTCHAR ncommaaccent
ENCODING 326
SWIDTH 933 0
DWIDTH 7 0
BBX 7 8 0 -2
BITMAP
12157400
1A620450
16000080
16000080
16000080
16000080
00030000
00040000
ENDCHAR
STARTCHAR Ncaron
ENCODING 327
SWIDTH 936 0
DWIDTH 7 0
BBX 7 7 0 0
BITMAP
00477100
13000030
1B500070
16640070
16064070
16006470
16000680
ENDCHAR
STARTCHAR ncaron
ENCODING 328
SWIDTH 933 0
DWIDTH 7 0
BBX 7 7 0 0
BITMAP
00576000
12167400
1A620450
16000080
16000080
16000080
16000080
ENDCHAR
STARTCHAR napostrophe
ENCODING 329
SWIDTH 1025 0
DWIDTH 8 0
BBX 8 6 0 0
BITMAP
32126720
75951072
05200035
05200025
05200025
05200025
ENDCHAR
STARTCHAR Eng
ENCODING 330
SWIDTH 936 0
DWIDTH 7 0
BBX 7 7 0 -1
BITMAP
14000030
1A700080
16282080
16007480
16000580
16076830
00001000
ENDCHAR
STARTCHAR eng
ENCODING 331
SWIDTH 933 0
DWIDTH 7 0
BBX 7 7 0 -1
BITMAP
12157400
1A620450
16000080
16000080
16000070
16066830
00001000
ENDCHAR
STARTCHAR Omacron
ENCODING 332
SWIDTH 983 0
DWIDTH 8 0
BBX 8 8 0 -1
BITMAP
00177000
00476300
08401470
53000053
61000035
35000072
05766740
00011000
ENDCHAR
STARTCHAR omacron
ENCODING 333
SWIDTH 983 0
DWIDTH 8 0
BBX 8 8 0 -1
BITMAP
00177000
00476300
08401470
53000053
61000035
35000072
05766740
00011000
ENDCHAR
STARTCHAR Obreve
ENCODING 334
SWIDTH 983 0
DWIDTH 8 0
BBX 8 8 0 -1
BITMAP
00267100
00476300
08401470
53000053
61000035
35000072
05766740
00011000
ENDCHAR
STARTCHAR obreve
ENCODING 335
SWIDTH 983 0
DWIDTH 8 0
BBX 8 8 0 -1
BITMAP
00267100
00476300
08401470
53000053
61000035
35000072
05766740
00011000
ENDCHAR
STARTCHAR Ohungarumlaut
ENCODING 336
SWIDTH 983 0
DWIDTH 8 0
BBX 8 8 0 -1
BITMAP
00075400
00476300
08401470
53000053
61000035
35000072
05766740
00011000
ENDCHAR
STARTCHAR ohungarumlaut
ENCODING 337
SWIDTH 983 0
DWIDTH 8 0
BBX 8 8 0 -1
BITMAP
00075400
00476300
08401470
53000053
61000035
35000072
05766740
00011000
ENDCHAR
STARTCHAR OE
ENCODING 338
SWIDTH 1338 0
DWIDTH 11 0
BBX 11 7 0 -1
BITMAP
004676666600
084007311100
530006211100
610006766500
350006200000
05765A877710
000110000000
ENDCHAR
STARTCHAR oe
ENCODING 339
SWIDTH 1688 0
DWIDTH 14 0
BBX 13 7 0 -1
BITMAP
00466300255200
08401475611550
53000058000070
6100003A777770
35000079000000
05766742875650
00011000001000
ENDCHAR
STARTCHAR Racute
ENCODING 340
SWIDTH 833 0
DWIDTH 7 0
BBX 7 7 0 0
BITMAP
00272000
16654000
17123800
16000800
1A77A300
16005400
16000810
ENDCHAR
STARTCHAR racute
ENCODING 341
SWIDTH 609 0
DWIDTH 5 0
BBX 5 7 0 0
BITMAP
004700
122660
1A5000
160000
160000
160000
160000
ENDCHAR
STARTCHAR Rcommaaccent
ENCODING 342
SWIDTH 833 0
DWIDTH 7 0
BBX 7 8 0 -2
BITMAP
16654000
17123800
16000800
1A77A300
16005400
16000810
00030000
00040000
ENDCHAR
STARTCHAR rcommaaccent
ENCODING 343
SWIDTH 609 0
DWIDTH 5 0
BBX 5 8 0 -2
BITMAP
122660
1A5000
160000
160000
160000
160000
030000
130000
ENDCHAR
STARTCHAR Rcaron
ENCODING 344
SWIDTH 833 0
DWIDTH 7 0
BBX 7 7 0 0
BITMAP
02773000
16664000
17123800
16000800
1A77A300
16005400
16000810
ENDCHAR
STARTCHAR rcaron
ENCODING 345
SWIDTH 609 0
DWIDTH 5 0
BBX 5 7 0 0
BITMAP
047610
122660
1A5000
160000
160000
160000
160000
ENDCHAR
STARTCHAR Sacute
ENCODING 346
SWIDTH 787 0
DWIDTH 6 0
BBX 6 8 0 -1
BITMAP
001730
037651
360021
282000
015771
000008
376574
001100
ENDCHAR
STARTCHAR sacute
ENCODING 347
SWIDTH 787 0
DWIDTH 6 0
BBX 6 8 0 -1
BITMAP
001730
037651
360021
282000
015771
000008
376574
001100
ENDCHAR
STARTCHAR Scircumflex
ENCODING 348
SWIDTH 787 0
DWIDTH 6 0
BBX 6 8 0 -1
BITMAP
027730
036651
360021
282000
015771
000008
376574
001100
ENDCHAR
STARTCHAR scircumflex
ENCODING 349
SWIDTH 787 0
DWIDTH 6 0
BBX 6 8 0 -1
BITMAP
027730
036651
360021
282000
015771
000008
376574
001100
ENDCHAR
STARTCHAR Scedilla
ENCODING 350
SWIDTH 787 0
DWIDTH 6 0
BBX 6 8 0 -2
BITMAP
036651
360021
282000
015771
000008
376574
002800
004600
ENDCHAR
STARTCHAR scedilla
ENCODING 351
SWIDTH 787 0
DWIDTH 6 0
BBX 6 8 0 -2
BITMAP
036651
360021
282000
015771
000008
376574
002800
004600
ENDCHAR
STARTCHAR Scaron
ENCODING 352
SWIDTH 787 0
DWIDTH 6 0
BBX 6 8 0 -1
BITMAP
027730
036751
360021
282000
015771
000008
376574
001100
ENDCHAR
STARTCHAR scaron
ENCODING 353
SWIDTH 787 0
DWIDTH 6 0
BBX 6 8 0 -1
BITMAP
027730
036751
360021
282000
015771
000008
376574
001100
ENDCHAR
STARTCHAR Tcommaaccent
ENCODING 354
SWIDTH 708 0
DWIDTH 6 0
BBX 6 8 0 -2
BITMAP
566663
117211
006100
006100
006100
006100
003100
004000
ENDCHAR
STARTCHAR tcommaaccent
ENCODING 355
SWIDTH 708 0
DWIDTH 6 0
BBX 6 8 0 -2
BITMAP
566663
117211
006100
006100
006100
006100
003100
004000
ENDCHAR
STARTCHAR Tcaron
ENCODING 356
SWIDTH 708 0
DWIDTH 6 0
BBX 6 7 0 0
BITMAP
037710
566663
117211
006100
006100
006100
006100
ENDCHAR
STARTCHAR tcaron
ENCODING 357
SWIDTH 708 0
DWIDTH 6 0
BBX 6 7 0 0
BITMAP
037720
566663
117211
006100
006100
006100
006100
ENDCHAR
STARTCHAR Tbar
ENCODING 358
SWIDTH 708 0
DWIDTH 6 0
BBX 6 6 0 0
BITMAP
566663
117211
149540
127320
006100
006100
ENDCHAR
STARTCHAR tbar
ENCODING 359
SWIDTH 708 0
DWIDTH 6 0
BBX 6 6 0 0
BITMAP
566663
117211
149540
127320
006100
006100
ENDCHAR
STARTCHAR Utilde
ENCODING 360
SWIDTH 891 0
DWIDTH 7 0
BBX 7 8 0 -1
BITMAP
00566000
12100120
25000340
25000340
25000340
16000430
06757700
00010000
ENDCHAR
STARTCHAR utilde
ENCODING 361
SWIDTH 931 0
DWIDTH 7 0
BBX 7 8 0 -1
BITMAP
00467000
12101030
26000080
26000080
26000080
16000280
07667580
00110000
ENDCHAR
STARTCHAR Umacron
ENCODING 362
SWIDTH 891 0
DWIDTH 7 0
BBX 7 8 0 -1
BITMAP
00374000
12000120
25000340
25000340
25000340
16000430
06757700
00010000
ENDCHAR
STARTCHAR umacron
ENCODING 363
SWIDTH 931 0
DWIDTH 7 0
BBX 7 8 0 -1
BITMAP
00275000
12000030
26000080
26000080
26000080
16000280
07667580
00110000
ENDCHAR
STARTCHAR Ubreve
ENCODING 364
SWIDTH 891 0
DWIDTH 7 0
BBX 7 8 0 -1
BITMAP
00556000
12010120
25000340
25000340
25000340
16000430
06757700
00010000
ENDCHAR
STARTCHAR ubreve
ENCODING 365
SWIDTH 931 0
DWIDTH 7 0
BBX 7 8 0 -1
BITMAP
00467000
12010030
26000080
26000080
26000080
16000280
07667580
00110000
ENDCHAR
STARTCHAR Uring
ENCODING 366
SWIDTH 891 0
DWIDTH 7 0
BBX 7 9 0 -1
BITMAP
00030000
00667000
12030120
25000340
25000340
25000340
16000430
06757700
00010000
ENDCHAR
STARTCHAR uring
ENCODING 367
SWIDTH 931 0
DWIDTH 7 0
BBX 7 9 0 -1
BITMAP
00031000
00378000
12031030
26000080
26000080
26000080
16000280
07667580
00110000
ENDCHAR
STARTCHAR Uhungarumlaut
ENCODING 368
SWIDTH 891 0
DWIDTH 7 0
BBX 7 8 0 -1
BITMAP
00367100
12000120
25000340
25000340
25000340
16000430
06757700
00010000
ENDCHAR
STARTCHAR uhungarumlaut
ENCODING 369
SWIDTH 931 0
DWIDTH 7 0
BBX 7 8 0 -1
BITMAP
00276200
12000030
26000080
26000080
26000080
16000280
07667580
00110000
ENDCHAR
STARTCHAR Uogonek
ENCODING 370
SWIDTH 891 0
DWIDTH 7 0
BBX 7 8 0 -2
BITMAP
12000120
25000340
25000340
25000340
16000430
07757700
00170000
00053000
ENDCHAR
STARTCHAR uogonek
ENCODING 371
SWIDTH 931 0
DWIDTH 7 0
BBX 7 8 0 -2
BITMAP
12000030
26000080
26000080
26000080
16000280
07667580
00110610
00000250
ENDCHAR
STARTCHAR Wcircumflex
ENCODING 372
SWIDTH 1266 0
DWIDTH 10 0
BBX 10 7 0 0
BITMAP
0002773000
3000230003
5300880017
0801762071
0715217080
0268008440
0096004B00
ENDCHAR
STARTCHAR wcircumflex
ENCODING 373
SWIDTH 1266 0
DWIDTH 10 0
BBX 10 7 0 0
BITMAP
0002773000
3000230003
5300880017
0801762071
0715217080
0268008440
0096004B00
ENDCHAR
STARTCHAR Ycircumflex
ENCODING 374
SWIDTH 763 0
DWIDTH 6 0
BBX 6 7 0 0
BITMAP
027730
310003
170062
035440
006700
003400
003400
ENDCHAR
STARTCHAR ycircumflex
ENCODING 375
SWIDTH 911 0
DWIDTH 7 0
BBX 7 8 0 -1
BITMAP
00576000
21000120
43000260
35000460
09426760
00341440
27667700
00110000
ENDCHAR
STARTCHAR Ydieresis
ENCODING 376
SWIDTH 763 0
DWIDTH 6 0
BBX 6 7 0 0
BITMAP
005310
300003
170062
035440
006700
003400
003400
ENDCHAR
STARTCHAR Zacute
ENCODING 377
SWIDTH 728 0
DWIDTH 6 0
BBX 6 7 0 0
BITMAP
002720
266661
011280
000810
007100
063000
4A7772
ENDCHAR
STARTCHAR zacute
ENCODING 378
SWIDTH 728 0
DWIDTH 6 0
BBX 6 7 0 0
BITMAP
002720
266661
011280
000810
007100
063000
4A7772
ENDCHAR
STARTCHAR Zdotaccent
ENCODING 379
SWIDTH 728 0
DWIDTH 6 0
BBX 6 7 0 0
BITMAP
003200
266661
011280
000810
007100
063000
4A7772
ENDCHAR
STARTCHAR zdotaccent
ENCODING 380
SWIDTH 728 0
DWIDTH 6 0
BBX 6 7 0 0
BITMAP
003200
266661
011280
000810
007100
063000
4A7772
ENDCHAR
STARTCHAR Zcaron
ENCODING 381
SWIDTH 728 0
DWIDTH 6 0
BBX 6 7 0 0
BITMAP
037720
266661
011280
000810
007100
063000
4A7772
ENDCHAR
STARTCHAR zcaron
ENCODING 382
SWIDTH 728 0
DWIDTH 6 0
BBX 6 7 0 0
BITMAP
037720
266661
011280
000810
007100
063000
4A7772
ENDCHAR
STARTCHAR florin
ENCODING 402
SWIDTH 835 0
DWIDTH 7 0
BBX 7 7 0 -1
BITMAP
00004620
00035010
005A6100
00080000
00250000
43810000
24100000
ENDCHAR
STARTCHAR AEacute
ENCODING 508
SWIDTH 1172 0
DWIDTH 9 0
BBX 9 7 0 0
BITMAP
0000037100
0003666640
0018911110
0081811100
0540966630
1A77A00000
8100977750
ENDCHAR
STARTCHAR aeacute
ENCODING 509
SWIDTH 1551 0
DWIDTH 12 0
BBX 12 8 0 -1
BITMAP
000000640000
036651026510
041018751164
000247700007
177535977777
710001900000
385677476574
001100000100
ENDCHAR
STARTCHAR Oslashacute
ENCODING 510
SWIDTH 983 0
DWIDTH 8 0
BBX 8 8 0 -1
BITMAP
00027210
00476630
08402870
53007053
71062035
35350072
06B66740
05111000
ENDCHAR
STARTCHAR oslashacute
ENCODING 511
SWIDTH 983 0
DWIDTH 8 0
BBX 8 8 0 -1
BITMAP
00027210
00476630
08402870
53007053
71062035
35350072
06B66740
05111000
ENDCHAR
STARTCHAR dotlessj
ENCODING 567
SWIDTH 590 0
DWIDTH 5 0
BBX 4 7 0 -1
BITMAP
0003
0007
0007
0007
0007
7675
0100
ENDCHAR
STARTCHAR circumflex
ENCODING 710
SWIDTH 527 0
DWIDTH 4 0
BBX 4 2 0 4
BITMAP
0450
2323
ENDCHAR
STARTCHAR caron
ENCODING 711
SWIDTH 527 0
DWIDTH 4 0
BBX 4 2 0 4
BITMAP
2423
0350
ENDCHAR
STARTCHAR breve
ENCODING 728
SWIDTH 527 0
DWIDTH 4 0
BBX 4 2 0 4
BITMAP
1212
0561
ENDCHAR
STARTCHAR dotaccent
ENCODING 729
SWIDTH 527 0
DWIDTH 4 0
BBX 2 2 1 4
BITMAP
01
13
ENDCHAR
STARTCHAR ring
ENCODING 730
SWIDTH 527 0
DWIDTH 4 0
BBX 3 2 1 4
BITMAP
6710
5600
ENDCHAR
STARTCHAR ogonek
ENCODING 731
SWIDTH 527 0
DWIDTH 4 0
BBX 2 2 1 -2
BITMAP
61
35
ENDCHAR
STARTCHAR tilde
ENCODING 732
SWIDTH 527 0
DWIDTH 4 0
BBX 4 2 0 4
BITMAP
0402
2362
ENDCHAR
STARTCHAR hungarumlaut
ENCODING 733
SWIDTH 527 0
DWIDTH 4 0
BBX 3 2 1 4
BITMAP
2240
4310
ENDCHAR
STARTCHAR commaaccent
ENCODING 806
SWIDTH 527 0
DWIDTH 4 0
BBX 2 2 1 -2
BITMAP
13
22
ENDCHAR
STARTCHAR mu
ENCODING 956
SWIDTH 705 0
DWIDTH 6 0
BBX 5 6 0 -2
BITMAP
050050
070070
260170
586570
701000
400000
ENDCHAR
STARTCHAR Wgrave
ENCODING 7808
SWIDTH 1266 0
DWIDTH 10 0
BBX 10 7 0 0
BITMAP
0002720000
3000230003
5300880017
0801762071
0715217080
0268008440
0096004B00
ENDCHAR
STARTCHAR wgrave
ENCODING 7809
SWIDTH 1266 0
DWIDTH 10 0
BBX 10 7 0 0
BITMAP
0002720000
3000230003
5300880017
0801762071
0715217080
0268008440
0096004B00
ENDCHAR
STARTCHAR Wacute
ENCODING 7810
SWIDTH 1266 0
DWIDTH 10 0
BBX 10 7 0 0
BITMAP
0000273000
3000230003
5300880017
0801762071
0715217080
0268008440
0096004B00
ENDCHAR
STARTCHAR wacute
ENCODING 7811
SWIDTH 1266 0
DWIDTH 10 0
BBX 10 7 0 0
BITMAP
0000273000
3000230003
5300880017
0801762071
0715217080
0268008440
0096004B00
ENDCHAR
STARTCHAR Wdieresis
ENCODING 7812
SWIDTH 1266 0
DWIDTH 10 0
BBX 10 7 0 0
BITMAP
0000531000
3000230003
5300880017
0801762071
0715217080
0268008440
0096004B00
ENDCHAR
STARTCHAR wdieresis
ENCODING 7813
SWIDTH 1266 0
DWIDTH 10 0
BBX 10 7 0 0
BITMAP
0000531000
3000230003
5300880017
0801762071
0715217080
0268008440
0096004B00
ENDCHAR
STARTCHAR Ygrave
ENCODING 7922
SWIDTH 763 0
DWIDTH 6 0
BBX 6 7 0 0
BITMAP
027200
300003
170062
035440
006700
003400
003400
ENDCHAR
STARTCHAR ygrave
ENCODING 7923
SWIDTH 911 0
DWIDTH 7 0
BBX 7 8 0 -1
BITMAP
00560000
21000120
43000260
35000460
09426760
00341440
27667700
00110000
ENDCHAR
STARTCHAR endash
ENCODING 8211
SWIDTH 419 0
DWIDTH 3 0
BBX 4 1 0 2
BITMAP
5661
ENDCHAR
STARTCHAR emdash
ENCODING 8212
SWIDTH 1000 0
DWIDTH 8 0
BBX 8 1 0 2
BITMAP
66666666
ENDCHAR
STARTCHAR quoteleft
ENCODING 8216
SWIDTH 163 0
DWIDTH 1 0
BBX 1 2 0 4
BITMAP
20
70
ENDCHAR
STARTCHAR quoteright
ENCODING 8217
SWIDTH 163 0
DWIDTH 1 0
BBX 1 2 0 4
BITMAP
30
70
ENDCHAR
STARTCHAR quotesinglbase
ENCODING 8218
SWIDTH 163 0
DWIDTH 1 0
BBX 1 2 0 -1
BITMAP
50
50
ENDCHAR
STARTCHAR quotedblleft
ENCODING 8220
SWIDTH 303 0
DWIDTH 2 0
BBX 3 2 0 4
BITMAP
2210
7700
ENDCHAR
STARTCHAR quotedblright
ENCODING 8221
SWIDTH 303 0
DWIDTH 2 0
BBX 3 2 0 4
BITMAP
3210
7700
ENDCHAR
STARTCHAR quotedblbase
ENCODING 8222
SWIDTH 303 0
DWIDTH 2 0
BBX 3 2 0 -1
BITMAP
5510
5500
ENDCHAR
STARTCHAR dagger
ENCODING 8224
SWIDTH 500 0
DWIDTH 4 0
BBX 4 6 0 0
BITMAP
0110
0440
2992
0440
0440
0440
ENDCHAR
STARTCHAR daggerdbl
ENCODING 8225
SWIDTH 500 0
DWIDTH 4 0
BBX 4 6 0 0
BITMAP
0110
0440
2992
1661
1661
0440
ENDCHAR
STARTCHAR bullet
ENCODING 8226
SWIDTH 352 0
DWIDTH 3 0
BBX 3 2 0 2
BITMAP
1700
4E10
ENDCHAR
STARTCHAR ellipsis
ENCODING 8230
SWIDTH 555 0
DWIDTH 4 0
BBX 5 1 0 0
BITMAP
837810
ENDCHAR
STARTCHAR perthousand
ENCODING 8240
SWIDTH 1401 0
DWIDTH 11 0
BBX 11 7 0 -1
BITMAP
055002000000
613526000000
535470000000
032736505620
005370555070
035065817560
000001000100
ENDCHAR
STARTCHAR guilsinglleft
ENCODING 8249
SWIDTH 257 0
DWIDTH 2 0
BBX 2 3 0 1
BITMAP
36
71
15
ENDCHAR
STARTCHAR guilsinglright
ENCODING 8250
SWIDTH 257 0
DWIDTH 2 0
BBX 2 3 0 1
BITMAP
54
18
51
ENDCHAR
STARTCHAR fraction
ENCODING 8260
SWIDTH 200 0
DWIDTH 2 0
BBX 5 6 -2 0
BITMAP
000020
000260
000700
007100
052000
340000
ENDCHAR
STARTCHAR Euro
ENCODING 8364
SWIDTH 833 0
DWIDTH 7 0
BBX 7 7 0 -1
BITMAP
00266300
05601510
4B665000
4A662000
18110000
02866810
00011000
ENDCHAR
STARTCHAR trademark
ENCODING 8482
SWIDTH 773 0
DWIDTH 6 0
BBX 6 3 0 3
BITMAP
453012
056455
055445
ENDCHAR
STARTCHAR partialdiff
ENCODING 8706
SWIDTH 790 0
DWIDTH 6 0
BBX 6 7 0 -1
BITMAP
005630
011046
015527
371169
700026
285670
001000
ENDCHAR
STARTCHAR minus
ENCODING 8722
SWIDTH 634 0
DWIDTH 5 0
BBX 5 1 0 2
BITMAP
266630
ENDCHAR
STARTCHAR uni2215
ENCODING 8725
SWIDTH 200 0
DWIDTH 2 0
BBX 5 6 -2 0
BITMAP
000020
000260
000700
007100
052000
340000
ENDCHAR
STARTCHAR approxequal
ENCODING 8776
SWIDTH 634 0
DWIDTH 5 0
BBX 5 3 0 1
BITMAP
366630
265220
101410
ENDCHAR
STARTCHAR notequal
ENCODING 8800
SWIDTH 634 0
DWIDTH 5 0
BBX 5 5 0 0
BITMAP
002400
27A730
128210
168420
031000
ENDCHAR
STARTCHAR lessequal
ENCODING 8804
SWIDTH 634 0
DWIDTH 5 0
BBX 5 5 0 0
BITMAP
000330
157400
274000
002630
266630
ENDCHAR
STARTCHAR greaterequal
ENCODING 8805
SWIDTH 634 0
DWIDTH 5 0
BBX 5 5 0 0
BITMAP
240000
037610
004730
272000
266630
ENDCHAR
STARTCHAR fi
ENCODING 64257
SWIDTH 1104 0
DWIDTH 9 0
BBX 8 6 0 0
BITMAP
00456603
09421107
16000007
1A777707
16000007
16000007
ENDCHAR
STARTCHAR fl
ENCODING 64258
SWIDTH 1527 0
DWIDTH 12 0
BBX 13 6 0 0
BITMAP
00456603000000
09421107000000
16000007000000
1A777707000000
16000007000000
16000003877710
ENDCHAR
STARTCHAR .notdef
ENCODING -1
SWIDTH 1000 0
DWIDTH 8 0
BBX 1 1 0 0
BITMAP
00
ENDCHAR
ENDFONT
